<?xml version="1.0" standalone="no"?>
<!DOCTYPE svg PUBLIC "-//W3C//DTD SVG 20010904//EN"
 "http://www.w3.org/TR/2001/REC-SVG-20010904/DTD/svg10.dtd">
<svg version="1.0" xmlns="http://www.w3.org/2000/svg"
 width="832.000000pt" height="832.000000pt" viewBox="0 0 832.000000 832.000000"
 preserveAspectRatio="xMidYMid meet">
<metadata>
Created by potrace 1.14, written by Peter Selinger 2001-2017
</metadata>
<g transform="translate(0.000000,832.000000) scale(0.100000,-0.100000)"
fill="#000000" stroke="none">
<path d="M3989 7945 c-3 -2 -30 -7 -60 -11 -29 -3 -61 -10 -69 -14 -8 -4 -35
-10 -60 -14 -24 -4 -50 -12 -57 -18 -7 -6 -13 -7 -13 -3 0 4 -6 3 -12 -2 -7
-6 -26 -13 -43 -17 -77 -19 -315 -155 -409 -235 -49 -41 -226 -223 -226 -232
0 -4 -6 -14 -13 -21 -37 -37 -120 -166 -160 -249 -66 -138 -109 -275 -125
-404 -9 -72 -8 -291 1 -355 8 -58 9 -63 22 -125 11 -49 10 -47 17 -65 4 -8 8
-24 11 -35 17 -66 99 -258 118 -275 3 -3 15 -25 28 -50 13 -25 26 -47 30 -50
3 -3 16 -20 29 -38 22 -32 23 -39 17 -160 -5 -119 -11 -184 -20 -242 -2 -14
-7 -47 -10 -75 -4 -27 -11 -70 -17 -95 -5 -25 -12 -54 -14 -65 -35 -173 -112
-389 -217 -605 -12 -25 -25 -46 -29 -48 -5 -2 -8 -10 -8 -17 0 -8 -8 -21 -17
-31 -10 -10 -17 -19 -15 -21 4 -4 -136 -233 -148 -243 -3 -3 -20 -27 -38 -55
-17 -27 -43 -63 -57 -79 -14 -16 -25 -32 -25 -35 0 -3 -15 -23 -33 -43 -17
-20 -40 -46 -49 -58 -115 -150 -360 -389 -523 -510 -33 -25 -62 -47 -65 -50
-3 -3 -27 -20 -55 -38 -27 -17 -59 -39 -70 -47 -10 -8 -26 -15 -35 -16 -8 0
-78 -2 -155 -4 -77 -1 -153 -5 -170 -9 -16 -3 -48 -8 -70 -11 -80 -12 -216
-51 -285 -82 -74 -32 -185 -87 -190 -93 -3 -3 -23 -17 -45 -30 -22 -13 -42
-26 -45 -30 -3 -3 -31 -24 -62 -47 -156 -116 -313 -311 -410 -507 -45 -91
-103 -269 -113 -346 -2 -14 -4 -25 -5 -25 -13 0 -19 -362 -7 -429 25 -134 71
-296 102 -356 7 -14 27 -54 45 -88 33 -66 104 -177 127 -200 7 -7 13 -17 13
-22 0 -15 206 -218 265 -260 33 -24 63 -48 67 -54 5 -7 8 -7 8 -1 0 6 4 5 8
-1 6 -10 177 -107 192 -110 3 0 16 -5 30 -11 102 -45 269 -92 340 -96 22 -1
40 -5 40 -9 0 -7 334 -3 373 6 15 3 38 8 52 11 14 3 37 8 53 11 15 3 32 7 37
8 6 1 28 8 50 15 63 20 65 20 70 21 45 6 315 147 345 180 3 3 28 21 55 40 140
97 292 270 400 454 38 65 59 90 85 102 19 9 46 25 60 34 14 10 30 19 35 21 6
1 47 20 93 41 118 55 202 88 202 80 0 -4 4 -2 8 4 6 9 92 40 127 45 6 0 18 5
28 11 10 5 68 22 130 38 107 27 135 33 220 46 49 8 72 12 72 14 0 1 11 3 25 4
14 2 63 7 110 12 156 16 578 10 690 -11 14 -2 43 -7 65 -10 22 -2 63 -9 90
-15 28 -5 59 -11 70 -13 11 -2 34 -7 50 -11 17 -4 50 -12 75 -18 25 -5 56 -14
70 -18 14 -4 59 -18 100 -30 128 -37 313 -109 457 -177 67 -32 74 -38 104 -96
33 -65 109 -185 144 -226 147 -179 300 -302 490 -395 106 -52 213 -93 265
-102 14 -3 34 -8 45 -11 25 -8 40 -11 90 -18 22 -3 63 -8 90 -11 114 -15 333
-4 417 22 10 3 30 7 45 10 92 16 357 128 405 171 10 9 18 13 18 9 0 -4 6 -1
14 6 8 7 39 31 70 53 31 22 56 43 56 47 0 4 5 8 10 8 27 0 213 209 283 317 29
46 97 170 97 178 1 3 9 24 19 47 21 49 58 161 66 198 2 14 9 47 15 73 48 235
26 517 -60 747 -28 74 -78 176 -112 227 -15 23 -28 44 -28 47 0 3 -8 15 -17
27 -10 11 -26 30 -35 42 -137 172 -297 303 -486 397 -91 45 -240 101 -307 115
-142 30 -202 37 -355 40 -136 3 -180 10 -180 26 0 5 -4 9 -10 9 -8 0 -125 75
-140 90 -3 3 -43 34 -90 70 -47 35 -103 80 -125 100 -66 59 -258 252 -297 300
-21 25 -44 52 -51 60 -8 8 -37 47 -66 85 -29 39 -59 78 -67 88 -8 9 -14 19
-14 21 0 2 -22 37 -50 79 -27 42 -50 81 -50 86 0 6 -4 11 -9 11 -5 0 -11 8
-15 18 -3 9 -22 44 -41 77 -40 68 -110 209 -149 302 -31 74 -122 346 -130 388
-3 17 -10 50 -16 75 -7 25 -13 54 -16 65 -2 11 -6 31 -9 45 -13 60 -16 77 -20
110 -2 19 -4 35 -5 35 -3 0 -9 42 -14 90 -3 28 -6 50 -6 50 -3 0 -7 43 -14
131 -4 58 -2 75 12 90 26 29 94 141 129 214 107 225 144 391 139 635 -4 149
-7 191 -22 255 -3 14 -8 38 -10 54 -16 88 -154 406 -176 406 -4 0 -8 6 -8 14
0 8 -6 21 -12 28 -7 7 -33 40 -58 73 -54 72 -212 235 -228 235 -7 0 -12 4 -12
8 0 7 -114 89 -195 140 -32 20 -203 101 -225 107 -3 0 -27 8 -55 17 -61 21
-156 45 -210 54 -48 8 -380 16 -386 9z m341 -2855 c257 -159 512 -380 701
-609 24 -30 56 -68 72 -85 15 -17 27 -36 27 -43 0 -7 4 -13 9 -13 10 0 191
-264 191 -279 0 -6 3 -11 8 -11 4 0 12 -10 18 -23 6 -12 38 -74 71 -137 65
-125 160 -358 164 -405 0 -5 5 -16 11 -22 6 -7 8 -13 4 -13 -3 0 -1 -12 5 -27
13 -34 60 -210 63 -238 2 -11 6 -29 9 -40 7 -22 13 -54 23 -124 4 -25 8 -55
10 -66 9 -47 13 -73 18 -125 3 -30 8 -81 12 -114 5 -54 3 -62 -25 -101 -17
-24 -47 -77 -66 -118 l-35 -75 -138 -69 c-75 -38 -157 -77 -182 -87 -122 -49
-184 -71 -250 -91 -3 -1 -12 -4 -20 -8 -39 -15 -159 -44 -164 -39 -3 3 -6 0
-6 -7 0 -7 -4 -10 -9 -7 -4 3 -23 1 -42 -4 -19 -6 -47 -13 -64 -15 -16 -3 -43
-8 -60 -12 -16 -3 -41 -7 -55 -8 -14 -1 -45 -6 -70 -10 -183 -30 -708 -37
-850 -10 -14 2 -50 7 -80 11 -30 3 -59 8 -63 11 -5 3 -23 7 -40 9 -18 3 -42 7
-54 9 -13 3 -24 5 -25 5 -9 -1 -165 46 -242 72 -122 41 -245 95 -369 162 -94
50 -104 59 -126 103 -13 26 -44 77 -70 113 -73 100 -73 100 -66 203 8 114 11
153 19 197 4 19 8 52 11 73 10 87 61 308 96 414 5 18 12 40 13 50 8 37 109
288 120 295 6 4 8 8 4 8 -3 0 10 33 30 73 19 39 35 75 34 80 -1 4 2 7 8 7 5 0
10 5 10 11 0 12 79 148 97 167 7 8 11 17 8 22 -3 5 -1 10 3 12 5 1 33 38 63
82 77 112 82 119 103 141 10 11 25 31 35 45 38 57 256 282 365 375 82 70 185
146 296 219 166 109 146 102 272 101 110 -1 115 -2 168 -35z"/>
</g>
</svg>
